<svg width="228" height="54" viewBox="0 0 228 54" fill="none" xmlns="http://www.w3.org/2000/svg">
<path fill-rule="evenodd" clip-rule="evenodd" d="M60.5409 35.8076L60.1078 34.9676C59.5023 33.7932 57.0831 27.8192 56.1254 25.1342L55.3269 22.8954L55.7949 22.57C57.7554 21.2077 59.2961 19.0043 60.2042 16.2646C60.6752 14.8431 60.7489 14.2825 60.7438 12.1503C60.7388 10.0526 60.6572 9.43439 60.2003 8.03594C59.1343 4.77246 57.2025 2.40323 54.5333 1.08541L53.1947 0.424448H43.2398H33.285V18.2189V36.0133L37.7208 36.0686L42.1566 36.124L42.2856 35.4772C42.3566 35.1215 42.4147 32.6319 42.4147 29.9447V25.0589L43.0558 24.9304C43.4085 24.8596 44.2907 24.8018 45.0161 24.8018H46.3353L46.8078 25.8818C47.0677 26.4757 48.0548 29.0214 49.0012 31.539L50.7221 36.1162H55.6673H60.6125L60.5409 35.8076ZM52.3551 11.2723C51.9317 10.2556 51.3066 9.60431 50.3134 9.14474C49.6175 8.82259 48.955 8.76438 45.9537 8.76047L42.4147 8.75594V12.7674V16.7789H45.9106C48.9478 16.7789 49.5063 16.7274 50.1677 16.3864C52.2183 15.3286 53.1438 13.1648 52.3551 11.2723Z" fill="white"/>
<path fill-rule="evenodd" clip-rule="evenodd" d="M197.116 22.7446C197.888 20.5572 206.629 0.384745 206.896 0.176149C207.256 -0.105682 212.841 -0.02895 213.131 0.261932C213.307 0.438436 215.004 4.4392 217.825 11.3274C218.752 13.5903 220.183 17.0617 221.006 19.0417C221.829 21.0217 223.167 24.2618 223.98 26.2418C224.793 28.2218 226.003 31.1535 226.669 32.7564C227.335 34.3593 227.88 35.7249 227.88 35.7907C227.88 35.8565 225.68 35.9104 222.991 35.9104H218.102L216.547 32.4647L214.992 29.019L210.153 28.8801L205.314 28.7414L200.147 32.2279C197.306 34.1454 194.919 35.6891 194.844 35.658C194.677 35.5895 196.759 23.7547 197.116 22.7446ZM11.1435 1.53758C12.4384 1.0167 13.9622 0.689616 16.1541 0.461888C17.8617 0.284767 18.4895 0.325911 22.0843 0.851926C23.3551 1.03789 25.6469 2.05331 27.3268 3.17446C28.9116 4.23245 31.336 6.40996 31.336 6.77572C31.336 6.90532 31.5163 7.1242 31.7369 7.26224C31.9574 7.40027 32.2391 7.70309 32.3628 7.93493C32.5623 8.30872 32.504 8.39203 31.8503 8.66563C31.4447 8.83576 31.0102 8.91126 30.8849 8.8335C30.757 8.75429 30.7144 8.78515 30.7876 8.90406C30.8602 9.02193 30.4885 9.30541 29.9473 9.54445C29.4135 9.78041 28.37 10.2439 27.6288 10.5745C25.4245 11.5574 25.1672 11.5673 23.9837 10.7146C21.7679 9.11841 18.837 8.42618 16.5419 8.95672C11.309 10.1663 8.2464 14.2774 8.77202 19.3861C9.02519 21.8458 9.81239 23.4607 11.5975 25.1811C13.5075 27.0223 15.6765 27.8957 18.3001 27.8801C21.5599 27.861 24.4619 26.3449 26.1818 23.7623C26.6471 23.0637 27.0276 22.3636 27.0276 22.2069C27.0276 21.9736 26.3036 21.9218 23.051 21.9218C19.1004 21.9218 19.0733 21.9187 18.9505 21.4589C18.8825 21.2042 18.8255 19.6075 18.8239 17.9103L18.821 14.8246L25.7409 14.8889C29.547 14.9241 32.6774 14.9704 32.6973 14.9918C32.7174 15.013 32.6821 18.1156 32.6191 21.8868L32.5044 28.7431L31.7078 29.6011C29.7409 31.7188 29.3667 32.0745 28.5852 32.5692C28.1285 32.8582 27.6263 33.2236 27.4691 33.3812C26.7293 34.123 22.956 35.6916 20.8728 36.1234C15.2914 37.2801 9.44125 35.463 5.19361 31.2532C2.36834 28.4532 0.534407 25.0135 0.108698 21.716C-0.0890768 20.1837 -0.00106235 15.1835 0.244515 14.0017C0.778754 11.4317 2.60181 8.18858 4.85714 5.79651C6.25695 4.31165 9.19465 2.32135 11.1435 1.53758ZM94.1152 36.1162V18.2189V0.32159H103.763C112.105 0.32159 113.962 0.307774 115.439 1.05028C115.895 1.27933 116.314 1.58035 116.877 1.97596C120.032 4.19502 121.766 8.21841 121.56 12.8406C121.36 17.345 119.539 20.6848 116.049 22.946C113.768 24.4247 112.825 24.6374 107.929 24.7791C105.541 24.8481 103.524 24.9678 103.447 25.0447C103.37 25.1219 103.256 27.6446 103.194 30.6505L103.08 36.1162H98.5978H94.1152ZM122.427 36.3297V18.3217V0.313772L127.095 0.369111L131.762 0.424448L131.816 8.60597L131.87 16.7873L136.022 16.7317C139.16 16.6896 140.18 16.6133 140.199 16.4189C140.214 16.2775 140.237 12.5977 140.251 8.24165L140.276 0.32159H144.585H148.893V13.2442C148.893 24.292 148.939 26.3222 149.21 27.236C149.833 29.3393 151.562 30.5349 153.627 30.2897C155.135 30.1107 156.029 29.4754 156.632 28.1541C157.088 27.156 157.157 26.638 157.329 22.8901C157.435 20.6037 157.575 16.4351 157.641 13.6263L157.762 8.51937L161.453 5.19191C163.483 3.36187 165.273 1.7904 165.43 1.69989C165.673 1.56 165.715 3.33059 165.71 13.5285C165.706 20.1248 165.614 26.2161 165.504 27.0647C164.653 33.6535 160.451 36.9133 152.791 36.9291C147.385 36.9405 143.339 35.0127 141.617 31.6048C140.857 30.1012 140.276 27.6742 140.276 26.0032V24.5961H136.074H131.871L131.817 30.4075L131.762 36.219L127.095 36.2743L122.427 36.3297ZM157.669 4.0938C157.587 2.30202 157.561 0.720267 157.611 0.578735C157.68 0.385362 158.657 0.32159 161.552 0.32159H165.402L164.687 1.02205C164.294 1.40736 162.588 2.98911 160.895 4.53712L157.818 7.35172L157.669 4.0938ZM172.487 5.24108C170.399 3.31784 168.368 1.42135 167.973 1.02678L167.255 0.309248L177.205 0.366848C186.906 0.423008 187.18 0.435557 188.115 0.868795C191.133 2.26766 193.51 5.29786 194.333 8.79462C194.74 10.5269 194.732 14.0118 194.318 15.6178C193.655 18.1833 191.94 20.9207 190.216 22.1618C189.718 22.5208 189.31 22.8981 189.31 23.0001C189.31 23.3762 192.068 30.5421 193.235 33.1977C193.897 34.7039 194.439 35.9767 194.439 36.0263C194.439 36.0756 192.242 36.1162 189.556 36.1162H184.674L183.306 32.5676C182.554 30.6157 181.585 28.0932 181.154 26.9618L180.369 24.9046L178.494 24.9071C177.463 24.9085 176.573 24.9559 176.517 25.0122C176.46 25.0688 176.348 27.5903 176.266 30.6155L176.118 36.1162H171.635H167.152V18.9271V1.73835L167.587 2.04343C167.826 2.2113 168.819 3.07489 169.792 3.96235C170.767 4.84981 172.648 6.54182 173.974 7.72242L176.385 9.86907V13.3241V16.7789H179.829C182.994 16.7789 183.347 16.7412 184.186 16.316C185.298 15.7515 186.351 14.4065 186.535 13.3125C186.724 12.1893 186.288 10.883 185.441 10.0334C184.285 8.87423 183.774 8.75697 179.828 8.74689L176.282 8.73804L172.487 5.24108ZM208.243 8.55023C208.644 7.5885 209.162 6.31553 209.396 5.72163L209.82 4.64162L208.848 4.64348L207.877 4.64533L206.817 7.36921C206.234 8.86744 204.549 13.0906 203.072 16.754C201.596 20.4174 200.388 23.4858 200.388 23.5726C200.388 23.6594 200.811 23.6224 201.327 23.4903L202.266 23.2503L203.903 19.2431C204.803 17.0393 205.984 14.1251 206.527 12.7674C207.071 11.4097 207.843 9.51195 208.243 8.55023ZM210.132 16.0589C212.243 11.0805 214.016 6.89174 214.074 6.75021C214.148 6.56671 213.909 6.49307 213.236 6.49307C212.368 6.49307 212.271 6.54614 212.007 7.16164C210.701 10.2087 205.768 21.6294 205.038 23.2955C204.533 24.4471 204.173 25.4422 204.237 25.507C204.469 25.739 206.09 25.6232 206.192 25.3675C206.248 25.2262 208.021 21.0372 210.132 16.0589ZM111.517 16.1084C114.181 14.3385 114.196 11.0299 111.547 9.42452L110.444 8.75594H106.895H103.347V12.7804V16.8048L107.005 16.7404C110.605 16.677 110.676 16.6672 111.517 16.1084ZM11.0501 14.2041C11.9143 13.264 12.6812 12.7532 13.691 12.4453C13.9737 12.3591 14.4591 12.2805 14.7693 12.2708L15.3335 12.2531V18.1341V24.0151L14.4615 23.8693C11.5626 23.3844 9.48413 20.9257 9.51081 18.0132C9.52578 16.3831 9.90143 15.4536 11.0501 14.2041ZM199.759 25.005C199.696 25.0065 199.436 24.6372 199.182 24.1846C198.929 23.7321 198.651 23.3618 198.565 23.3618C198.479 23.3618 198.197 23.5876 197.938 23.8639C197.567 24.2595 197.386 24.8822 197.082 26.7954C196.87 28.1315 196.651 29.4242 196.595 29.668C196.498 30.0866 196.532 30.099 197.207 29.8912C198.245 29.5721 198.874 29.9186 199.155 30.9628L199.378 31.7932L202.14 29.9395L204.902 28.086V27.2667V26.4475H204.014C203.149 26.4475 203.113 26.4206 202.645 25.4189C202.381 24.8532 202.158 24.3914 202.149 24.3928C202.14 24.394 201.625 24.5319 201.004 24.6989C200.383 24.866 199.823 25.0038 199.759 25.005ZM26.3096 51.6232C22.082 51.6136 20.8189 45.8638 24.6599 44.1144C25.6881 43.646 26.7685 43.627 27.8442 44.0586C28.7026 44.403 28.776 44.5795 28.544 45.7424L28.419 46.3686L27.7746 45.9747C26.8491 45.4088 25.7614 45.4622 24.9918 46.1117C24.4465 46.5717 24.3605 46.7803 24.3605 47.643C24.3605 48.8798 24.9465 49.6535 26.0117 49.8234C26.6551 49.9261 27.2529 49.7582 28.5272 49.1174C28.6185 49.0715 28.6646 49.4823 28.6297 50.0306C28.5741 50.9063 28.4917 51.0637 27.9509 51.3264C27.6123 51.4909 26.8738 51.6247 26.3096 51.6232ZM111.249 48.0491C109.127 46.7492 108.759 45.2413 110.309 44.1942C111.067 43.682 112.131 43.5923 113.165 43.9535C113.743 44.1557 113.811 44.265 113.811 44.9959C113.811 45.7537 113.777 45.8008 113.349 45.6498C112.631 45.3968 111.294 45.446 111.198 45.729C111.151 45.8679 111.556 46.2382 112.099 46.5519C112.641 46.8654 113.399 47.4254 113.782 47.7961C114.42 48.4134 114.469 48.549 114.373 49.4031C114.193 51.0075 112.759 51.9501 110.987 51.6294C109.68 51.3928 109.502 51.2192 109.502 50.1785C109.502 49.3616 109.549 49.2581 109.861 49.3912C110.895 49.8321 111.79 49.9806 112.127 49.7673C112.787 49.3497 112.521 48.8284 111.249 48.0491ZM57.9043 51.6477L57.8485 47.7905L57.7927 43.9334H59.4451C61.2526 43.9334 62.3567 44.2707 62.7092 44.9311C63.0746 45.6157 62.963 46.3884 62.4199 46.9329C62.0004 47.3536 61.9651 47.4665 62.2224 47.5655C62.6647 47.7358 63.1359 48.7327 63.1359 49.498C63.1359 49.9567 62.9382 50.3443 62.4591 50.8246C61.8828 51.4025 61.5855 51.5243 60.458 51.6454C59.7296 51.7236 58.8571 51.7561 58.519 51.7176L57.9043 51.6477ZM69.9062 47.9592C69.9062 44.1909 69.9091 44.167 70.3678 44.0786C70.8021 43.9947 71.0772 43.9082 71.2513 44.0044C71.5835 44.1881 71.5475 45.0376 71.5475 47.842V51.7506H70.7269H69.9062V47.9592ZM75.8559 45.4493C75.8559 44.2837 75.8978 44.1596 76.3175 44.0786C76.761 43.993 77.0404 43.9045 77.2137 44.003C77.5392 44.1879 77.4903 45.0317 77.4504 47.7905L77.3946 51.6477L75.5666 51.6298C73.7813 51.6123 73.7253 51.5969 73.156 50.9579C72.6974 50.4434 72.5733 50.1054 72.5733 49.3715C72.5733 47.6336 73.6761 46.4756 75.1649 46.6498L75.8559 46.7307V45.4493ZM88.2681 51.6477L88.2123 47.7905L88.1565 43.9334H90.5204H92.8842V44.8591V45.7848H91.4481C90.1488 45.7848 90.012 45.8239 90.012 46.1962C90.012 46.562 90.1488 46.6077 91.243 46.6077H92.4739V47.5334V48.4591H91.243H90.012V49.1791V49.8991H91.5624H93.113L93.0498 50.7734L92.9868 51.6477H90.6275H88.2681ZM96.9874 45.4493C96.9874 44.2837 97.0293 44.1596 97.4491 44.0786C97.8835 43.9947 98.1587 43.9082 98.3327 44.0045C98.6647 44.1881 98.6287 45.0367 98.6287 47.8364V51.7397L96.7423 51.6677C94.9256 51.5985 94.8347 51.572 94.2804 50.9499C93.8292 50.4434 93.7049 50.1028 93.7049 49.3715C93.7049 47.6336 94.8076 46.4756 96.2965 46.6498L96.9874 46.7307V45.4493ZM147.97 51.6477L147.914 47.7658L147.858 43.8838L149.76 43.9675C152.788 44.1006 154.207 45.1214 154.387 47.296C154.509 48.7712 154.171 49.7164 153.21 50.5868C152.305 51.4072 150.814 51.811 149.063 51.7104L147.97 51.6477ZM183.463 51.6477L183.407 47.7905L183.351 43.9334H184.381H185.412V46.9162V49.8991H186.86H188.308L188.244 50.7734L188.181 51.6477H185.822H183.463ZM203.671 45.4548C203.671 44.2835 203.713 44.1596 204.133 44.0786C204.386 44.0294 204.804 43.9768 205.06 43.9613L205.527 43.9334L205.471 47.7905L205.415 51.6477L203.876 51.6557C201.877 51.666 201.076 51.3574 200.689 50.4274C200.307 49.5122 200.311 49.073 200.708 48.0777C201.094 47.111 202.071 46.5067 203.021 46.6465L203.671 46.7422V45.4548ZM100.905 45.9549C100.051 46.0819 99.5271 45.172 100.115 44.5828C100.46 44.2362 101.306 44.3658 101.582 44.8076C101.874 45.2754 101.527 45.8621 100.905 45.9549ZM165.546 45.2929C165.507 44.9549 165.596 44.6231 165.751 44.5246C165.901 44.4291 166.163 44.3512 166.332 44.3512C166.904 44.3512 167.186 44.69 167.118 45.2929C167.057 45.8227 166.971 45.8877 166.332 45.8877C165.692 45.8877 165.606 45.8227 165.546 45.2929ZM45.2869 46.1104C45.2869 45.7239 45.4024 45.361 45.5434 45.3038C45.6845 45.2469 46.0998 45.1928 46.4666 45.1839C47.1104 45.1683 47.1334 45.196 47.1334 45.9905C47.1334 46.7311 47.1847 46.8134 47.6463 46.8134C48.0956 46.8134 48.1592 46.9024 48.1592 47.5334C48.1592 48.1703 48.0981 48.2534 47.6295 48.2534C47.1045 48.2534 47.1004 48.2659 47.1781 49.642C47.2214 50.4056 47.3312 51.1927 47.4221 51.3906C47.5648 51.701 47.475 51.7506 46.7701 51.7506C45.6878 51.7506 45.4578 51.4206 45.3343 49.6903C45.2611 48.6632 45.1519 48.2534 44.9517 48.2534C44.7683 48.2534 44.6715 48.0047 44.6715 47.5334C44.6715 47.0306 44.7642 46.8134 44.9792 46.8134C45.1928 46.8134 45.2869 46.5982 45.2869 46.1104ZM103.142 46.1277C103.142 45.7504 103.204 45.3802 103.279 45.3049C103.354 45.2294 103.723 45.1676 104.1 45.1676C104.761 45.1676 104.784 45.195 104.784 45.9905C104.784 46.7714 104.816 46.8134 105.412 46.8134C105.997 46.8134 106.036 46.859 105.976 47.482C105.923 48.039 105.818 48.1614 105.348 48.2155C104.806 48.2781 104.784 48.3268 104.784 49.4556C104.784 50.1544 104.905 50.8047 105.084 51.0606C105.457 51.594 105.314 51.7506 104.456 51.7506C103.418 51.7506 103.142 51.3202 103.142 49.7027C103.142 48.4743 103.092 48.2882 102.732 48.1937C102.433 48.1154 102.322 47.9131 102.322 47.4499C102.322 46.9506 102.41 46.8134 102.732 46.8134C103.06 46.8134 103.142 46.6762 103.142 46.1277ZM134.737 46.3884C134.737 46.1547 134.833 45.7844 134.949 45.5655C135.097 45.2896 135.38 45.1676 135.873 45.1676C136.565 45.1676 136.583 45.1888 136.583 45.9905C136.583 46.7311 136.635 46.8134 137.096 46.8134C137.546 46.8134 137.609 46.9024 137.609 47.5334C137.609 48.1643 137.546 48.2534 137.096 48.2534C136.603 48.2534 136.583 48.3023 136.583 49.5759C136.583 50.4578 136.683 50.9978 136.881 51.1972C137.045 51.3613 137.122 51.5531 137.052 51.6232C136.807 51.8691 135.4 51.7475 135.162 51.4597C135.03 51.2998 134.866 50.513 134.799 49.7111C134.713 48.6819 134.596 48.2534 134.4 48.2534C134.219 48.2534 134.122 48.002 134.122 47.5334C134.122 47.0306 134.214 46.8134 134.429 46.8134C134.603 46.8134 134.737 46.6291 134.737 46.3884ZM61.2895 46.017C61.2895 45.9346 61.1787 45.756 61.0433 45.6202C60.9079 45.4845 60.4924 45.3734 60.1201 45.3734C59.483 45.3734 59.443 45.416 59.443 46.0934C59.443 46.7523 59.4939 46.8134 60.0439 46.8134C60.5979 46.8134 61.2895 46.3713 61.2895 46.017ZM150.586 49.836C152.423 49.5889 153.221 47.6241 151.986 46.3861C151.52 45.9181 151.201 45.7848 150.55 45.7848H149.714V47.8691V49.9532L150.586 49.836ZM31.1308 47.0442C31.1308 47.1876 31.3059 47.1526 31.5925 46.952C31.8464 46.7745 32.267 46.6243 32.5274 46.6184C32.9588 46.6087 32.9954 46.6852 32.9377 47.482C32.8798 48.2853 32.8247 48.3614 32.2592 48.4204C31.382 48.512 31.1308 48.9672 31.1308 50.465V51.7755L30.3615 51.7115L29.5921 51.6477L29.5343 49.2305L29.4766 46.8134H30.3036C30.7784 46.8134 31.1308 46.9117 31.1308 47.0442ZM34.0195 50.7989C33.0343 49.5432 33.4143 47.7591 34.834 46.974C35.6317 46.533 37.0526 46.5692 37.625 47.0452C38.1065 47.4458 38.5577 48.6226 38.4093 49.0913C38.2994 49.4387 38.0829 49.4877 36.6564 49.4877C34.97 49.4877 34.5644 49.731 35.5931 50.1258C35.9665 50.269 36.4868 50.2772 37.1318 50.1503L38.1063 49.9584V50.5387C38.1063 51.8952 35.033 52.091 34.0195 50.7989ZM41.538 51.5271C39.1754 52.4278 37.8618 48.1898 40.1093 46.9173C40.4985 46.6967 40.9857 46.6315 41.6966 46.7046C42.2608 46.7624 42.9764 46.8107 43.2866 46.8115L43.8508 46.8134V49.054C43.8508 51.292 43.8502 51.2947 43.3205 51.428C43.0287 51.5014 42.6256 51.5091 42.4243 51.4451C42.2231 51.3811 41.8244 51.4179 41.538 51.5271ZM50.2301 51.4864C48.169 50.7485 48.2228 47.7228 50.3134 46.794C50.5391 46.6939 51.1219 46.6463 51.6084 46.6887C52.6415 46.7786 53.3914 47.3822 53.5676 48.2655C53.7827 49.3435 53.6095 49.4663 51.7819 49.5311L50.1082 49.5905L50.6921 49.9872C51.1964 50.3297 51.413 50.3556 52.2821 50.177L53.2882 49.9703V50.5446C53.2882 50.8824 53.1403 51.1968 52.9292 51.3081C52.2755 51.6522 50.9395 51.7405 50.2301 51.4864ZM63.9059 49.2036C63.8899 48.1365 64.2048 47.5272 65.0468 46.9967C65.5384 46.6869 65.9466 46.606 66.694 46.6706C69.5045 46.9138 69.9516 50.6607 67.2722 51.5167C66.502 51.7627 66.2845 51.7551 65.4998 51.4547C64.4145 51.039 63.9231 50.3451 63.9059 49.2036ZM99.9046 49.2458C99.848 46.8885 99.8556 46.842 100.315 46.7502C100.82 46.6492 101.127 46.5864 101.314 46.7082C101.605 46.8981 101.604 47.5368 101.604 49.1791V51.6477H100.783H99.9623L99.9046 49.2458ZM117.14 47.0578C117.198 47.231 117.365 47.2012 117.716 46.9549C118.367 46.4978 119.19 46.5147 119.784 46.9973C120.255 47.3795 120.273 47.3795 120.758 46.9973C121.45 46.4517 122.34 46.5015 122.957 47.1201C123.442 47.606 123.465 47.7364 123.409 49.6401L123.351 51.6477L122.581 51.7115L121.812 51.7755V50.2593C121.812 48.514 121.477 47.7879 120.85 48.1717C120.558 48.3499 120.456 48.7494 120.376 50.0232L120.273 51.6477H119.453H118.632L118.572 49.9409C118.528 48.6687 118.436 48.2044 118.211 48.1178C117.594 47.8806 117.317 48.4486 117.255 50.0717L117.196 51.6477H116.375H115.554L115.497 49.2305L115.439 46.8134H116.249C116.695 46.8134 117.096 46.9234 117.14 47.0578ZM124.274 49.1192C124.274 48.2229 124.978 47.1489 125.796 46.7961C126.031 46.6949 126.628 46.6572 127.124 46.7126C127.619 46.7681 128.334 46.8134 128.714 46.8134H129.403V48.9785V51.1437L128.845 51.3564C128.538 51.4735 128.112 51.5234 127.899 51.4677C127.687 51.4117 127.278 51.4554 126.992 51.5646C125.704 52.0554 124.274 50.7689 124.274 49.1192ZM132.117 47.0578C132.175 47.231 132.342 47.2012 132.693 46.9549C132.965 46.764 133.357 46.6077 133.564 46.6077C133.879 46.6077 133.93 46.748 133.877 47.482C133.817 48.3089 133.775 48.3618 133.096 48.4591L132.378 48.562L132.275 50.1048L132.173 51.6477H131.352H130.531L130.473 49.2305L130.416 46.8134H131.226C131.671 46.8134 132.072 46.9234 132.117 47.0578ZM155.668 47.8817C155.896 47.5077 156.38 47.0715 156.745 46.9127C157.673 46.5077 158.527 46.5414 159.299 47.0135C159.981 47.4303 160.262 48.058 160.143 48.901C160.078 49.3552 159.977 49.3885 158.484 49.4449C156.85 49.5066 156.506 49.7304 157.41 50.1433C157.788 50.3163 158.183 50.3196 158.897 50.1558C159.431 50.033 159.901 49.9649 159.94 50.004C159.979 50.0433 159.951 50.35 159.877 50.6858C159.764 51.2009 159.6 51.3325 158.822 51.5288C156.272 52.1725 154.386 49.9913 155.668 47.8817ZM162.116 49.5759C160.684 49.0273 160.316 47.8358 161.333 47.0341C162.318 46.2573 164.28 46.5865 164.28 47.5282C164.28 47.7979 164.289 47.9434 164.224 47.9955C164.143 48.0598 163.95 47.9824 163.488 47.821C162.678 47.5377 162.073 47.7144 162.419 48.1328C162.549 48.29 162.906 48.4813 163.212 48.5578C164.35 48.8426 164.829 49.8987 164.285 50.9197C163.876 51.6853 161.84 51.9166 161.049 51.2871C160.762 51.0589 160.695 50.1048 160.966 50.1048C161.062 50.1048 161.42 50.2449 161.762 50.4163C162.427 50.7487 163.049 50.6455 163.049 50.2028C163.049 50.0544 162.629 49.7724 162.116 49.5759ZM165.511 49.2964C165.511 46.9146 165.525 46.8393 165.973 46.7529C166.458 46.6592 166.744 46.5825 166.912 46.69C167.176 46.8579 167.152 47.4752 167.152 49.1791V51.7506H166.332H165.511V49.2964ZM168.374 50.3893C167.884 49.0956 168.311 47.6338 169.383 46.9411C169.781 46.684 170.19 46.6212 170.948 46.7013C171.512 46.7609 172.227 46.8107 172.538 46.8115L173.102 46.8134V49.6475C173.102 52.7495 172.988 53.1258 171.869 53.7061C171.157 54.0751 170.446 54.0949 169.382 53.7752C168.646 53.5541 168.589 53.4817 168.589 52.7721V52.0073L169.491 52.3327C170.218 52.5946 170.498 52.6107 170.927 52.4146C171.801 52.0155 171.607 51.5706 170.578 51.6105C169.55 51.6504 168.667 51.161 168.374 50.3893ZM175.816 47.0578C175.874 47.231 176.041 47.2012 176.392 46.9549C177.105 46.454 177.956 46.519 178.556 47.1201C179.04 47.606 179.064 47.7364 179.008 49.6401L178.949 51.6477L178.18 51.7115L177.41 51.7755L177.408 50.3743C177.404 48.6138 177.255 48.0477 176.796 48.0477C176.191 48.0477 175.997 48.5124 175.933 50.1141L175.872 51.6477H175.051H174.23L174.173 49.2305L174.115 46.8134H174.925C175.371 46.8134 175.772 46.9234 175.816 47.0578ZM189.22 47.6589C189.533 47.2857 189.981 46.9022 190.216 46.807C191.557 46.2631 193.219 46.9142 193.751 48.1921C194.321 49.5584 193.721 50.903 192.299 51.4475C190.544 52.1194 188.92 51.1519 188.745 49.3307C188.663 48.4694 188.726 48.2474 189.22 47.6589ZM195.109 51.2772C194.822 50.9898 194.732 50.4852 194.676 48.8635L194.606 46.8134H195.548H196.49V48.4655C196.49 49.7506 196.559 50.1443 196.801 50.2371C197.446 50.4854 197.721 49.9145 197.721 48.3311V46.8134H198.651H199.581L199.523 49.2305L199.465 51.6477L198.86 51.7168C198.462 51.7623 198.166 51.6637 197.994 51.429C197.779 51.1344 197.679 51.1182 197.419 51.335C196.934 51.7382 195.535 51.7032 195.109 51.2772ZM36.1823 48.6648C37.0021 48.6648 37.0961 48.6231 36.8754 48.3562C36.5126 47.9181 35.2341 48.0117 35.2341 48.4762C35.2341 48.5799 35.6608 48.6648 36.1823 48.6648ZM41.7951 50.2089C42.1701 50.0896 42.222 49.937 42.1687 49.1104C42.118 48.3233 42.031 48.1396 41.6853 48.0901C41.1817 48.0178 40.5682 48.6354 40.5682 49.2149C40.5682 49.8148 41.2635 50.3782 41.7951 50.2089ZM51.3642 48.6648C52.184 48.6648 52.278 48.6231 52.0572 48.3562C51.6945 47.9181 50.416 48.0117 50.416 48.4762C50.416 48.5799 50.8427 48.6648 51.3642 48.6648ZM67.2478 49.5681C67.4061 49.1499 67.3801 48.9059 67.1374 48.5342C66.5418 47.6229 65.5979 48.0392 65.5979 49.2131C65.5979 50.4054 66.8296 50.6705 67.2478 49.5681ZM75.4308 50.2124C75.7851 50.0997 75.8559 49.9082 75.8559 49.0625C75.8559 48.1351 75.8145 48.0477 75.3748 48.0477C74.8008 48.0477 74.2146 48.6373 74.2146 49.2149C74.2146 49.8078 74.9101 50.378 75.4308 50.2124ZM96.5386 50.22C96.9204 50.0985 96.9874 49.9254 96.9874 49.0625C96.9874 48.1234 96.9501 48.0477 96.4863 48.0477C95.9978 48.0477 95.3462 48.7076 95.3462 49.2021C95.3462 49.334 95.5134 49.6492 95.7179 49.9024C95.9904 50.2398 96.2097 50.3247 96.5386 50.22ZM127.123 50.2149C127.487 50.0993 127.556 49.9143 127.556 49.0625C127.556 48.1312 127.516 48.0477 127.069 48.0477C126.462 48.0477 126.069 48.5007 126.069 49.198C126.069 49.9078 126.57 50.391 127.123 50.2149ZM157.81 48.6648C158.49 48.6648 158.75 48.5889 158.691 48.4077C158.563 48.0183 157.416 47.9734 157.108 48.3458C156.876 48.6264 156.961 48.6648 157.81 48.6648ZM170.857 50.4844C171.314 50.4198 171.364 50.3081 171.42 49.2305C171.479 48.0903 171.463 48.0477 170.97 48.0477C170.398 48.0477 169.82 48.7232 169.82 49.3912C169.82 50.0662 170.292 50.5642 170.857 50.4844ZM190.839 50.0966C191.602 50.7321 192.475 49.5751 192.007 48.5467C191.764 48.0117 191.188 47.8926 190.787 48.2945C190.445 48.6373 190.478 49.7969 190.839 50.0966ZM202.567 49.9977C203.184 50.6154 203.563 50.3046 203.63 49.1258C203.684 48.1995 203.64 48.0485 203.323 48.0538C202.303 48.0711 201.839 49.2667 202.567 49.9977ZM61.2895 49.3159C61.2895 49.003 61.1787 48.636 61.0433 48.5002C60.9079 48.3645 60.4924 48.2534 60.1201 48.2534C59.4445 48.2534 59.443 48.2554 59.443 49.282C59.443 50.249 59.4746 50.3105 59.9695 50.3105C60.8088 50.3105 61.2895 49.9483 61.2895 49.3159ZM81.8962 50.8682C81.8335 50.7039 81.9323 50.4185 82.1162 50.2342C82.7589 49.5895 83.652 49.9526 83.652 50.8588C83.652 51.4683 82.9783 51.844 82.421 51.5448C82.1954 51.4237 82.0107 51.2891 82.0107 51.2459C82.0107 51.2025 81.9592 51.0326 81.8962 50.8682ZM141.912 51.4373C141.453 51.0207 141.391 50.5099 141.754 50.146C142.13 49.7681 142.904 49.8522 143.141 50.297C143.458 50.8907 143.406 51.0896 142.836 51.4644C142.35 51.7831 142.292 51.7814 141.912 51.4373Z" fill="white"/>
<path fill-rule="evenodd" clip-rule="evenodd" d="M73.0426 0.715838C72.7767 0.922863 64.063 20.9434 63.2936 23.1143C62.9384 24.1168 60.8629 35.8625 61.029 35.9305C61.1038 35.9613 63.4828 34.4293 66.3154 32.5262L71.4659 29.066L76.2893 29.2036L81.1128 29.3414L82.6627 32.7612L84.2124 36.181H89.086C91.7664 36.181 93.9595 36.1275 93.9595 36.0622C93.9595 35.9969 93.4164 34.6416 92.7523 33.0507C92.0883 31.4599 90.8823 28.5503 90.0721 26.5852C89.2618 24.6201 87.9279 21.4045 87.1076 19.4393C86.2873 17.4742 84.8605 14.0289 83.9368 11.7831C81.1248 4.94678 79.4331 0.97615 79.2577 0.800975C78.9685 0.512284 73.4015 0.43613 73.0426 0.715838ZM75.5343 6.21956C75.3017 6.80899 74.785 8.07237 74.3858 9.02685C73.9866 9.98133 73.2168 11.8648 72.6753 13.2123C72.1338 14.5598 70.9566 17.452 70.0593 19.6392L68.4277 23.6162L67.4917 23.8545C66.977 23.9855 66.5559 24.0223 66.5559 23.9361C66.5559 23.85 67.7598 20.8046 69.2312 17.1688C70.7027 13.533 72.3823 9.34168 72.9635 7.85473L74.0203 5.15136L74.9887 5.14952L75.9572 5.14768L75.5343 6.21956ZM80.1976 7.24039C80.1403 7.38086 78.3722 11.5381 76.2682 16.4789C74.1641 21.4198 72.3968 25.5772 72.3405 25.7175C72.2389 25.9713 70.6233 26.0862 70.3926 25.8559C70.3284 25.7916 70.6875 24.804 71.1906 23.6611C71.9186 22.0076 76.8359 10.6728 78.1372 7.64873C78.4 7.03786 78.4971 6.98518 79.362 6.98518C80.0328 6.98518 80.2718 7.05828 80.1976 7.24039ZM65.3534 24.5435C65.6064 24.9927 65.8653 25.3592 65.9289 25.3577C65.9925 25.3565 66.5508 25.2197 67.1694 25.0539C67.788 24.8881 68.3016 24.7514 68.3104 24.7501C68.3194 24.7487 68.5421 25.2071 68.8055 25.7685C69.2719 26.7626 69.3075 26.7894 70.1697 26.7894H71.055V27.6023V28.4155L68.3018 30.2551L65.5483 32.0948L65.326 31.2706C65.0465 30.2343 64.419 29.8904 63.3851 30.2071C62.712 30.4133 62.6779 30.4011 62.7744 29.9856C62.8305 29.7436 63.0491 28.4607 63.2603 27.1346C63.5626 25.2358 63.7438 24.6178 64.1131 24.2252C64.3712 23.951 64.6522 23.7268 64.7379 23.7268C64.8235 23.7268 65.1007 24.0943 65.3534 24.5435Z" fill="white"/>
</svg>
